<svg width="319" height="267" viewBox="0 0 319 267" fill="none" xmlns="http://www.w3.org/2000/svg">
<path d="M280.902 244.181L281.213 234.929C284.451 232.636 288.064 231.425 291.736 231.401C286.682 236.874 287.313 247.423 283.887 254.783C281.695 259.411 278.033 262.467 273.935 263.089L269.706 266.519C268.531 257.846 270.283 248.928 274.499 242.113C275.682 240.239 277.038 238.57 278.536 237.145C279.549 240.683 280.902 244.181 280.902 244.181Z" fill="#F2F2F2"/>
<path d="M67.0922 234.042L56.8854 229.95C55.5468 222.747 55.556 215.22 56.9121 208.023C61.1153 219.977 73.125 222.714 80.0466 232.193C84.3849 238.226 86.416 246.545 85.5664 254.8L87.8005 264.37C77.6813 263.403 68.3894 256.616 62.3728 245.796C60.7274 242.776 59.3758 239.492 58.3499 236.024C62.6788 235.373 67.0922 234.042 67.0922 234.042Z" fill="#F2F2F2"/>
<path d="M245.536 265.006C245.534 265.286 245.45 265.554 245.301 265.753C245.152 265.95 244.951 266.059 244.741 266.059H241.545C241.108 266.061 240.752 265.592 240.75 265.013V137.017C240.75 134.195 240.035 131.905 239.156 131.9H40.2354C39.353 131.905 38.6416 134.195 38.6376 137.017V264.221C38.6363 264.763 38.3254 265.216 37.9182 265.269C37.2744 265.353 36.6305 265.427 35.9906 265.495C35.9747 265.495 35.9588 265.501 35.9429 265.501C35.5931 265.543 35.2434 265.574 34.8936 265.611H34.8896C34.7068 265.174 34.5319 264.727 34.3531 264.279C34.2957 264.127 34.2658 263.96 34.2656 263.79V130.379C34.2656 129.6 34.2895 128.815 34.3292 128.042C34.3859 126.979 34.4854 125.921 34.6273 124.873C35.299 119.982 36.8173 116.671 38.5422 116.661H240.846C241.097 116.663 241.346 116.733 241.577 116.866C241.916 117.065 242.222 117.349 242.479 117.703C242.828 118.183 243.126 118.723 243.365 119.309C244.216 121.293 244.824 124.252 245.039 127.694C245.039 127.726 245.043 127.757 245.043 127.789C245.098 128.642 245.126 129.51 245.122 130.379L245.178 141.66L245.214 148.387L245.321 169.496L245.361 176.992L245.536 265.006Z" fill="#E6E6E6"/>
<path d="M171.709 77.637H151.436C150.839 77.6382 150.356 78.2801 150.356 79.0711V121.485H172.792V79.071C172.792 78.2794 172.308 77.6374 171.71 77.637H171.709ZM161.641 101.736C160.321 101.728 159.253 100.313 159.247 98.5657V93.6736C159.247 91.9226 160.319 90.5031 161.641 90.5031C162.963 90.5031 164.035 91.9226 164.035 93.6736V98.5657C164.029 100.313 162.96 101.728 161.641 101.736Z" fill="#CCCCCC"/>
<path d="M150.287 120.128V124.221C150.288 124.662 150.558 125.02 150.891 125.021H172.257C172.59 125.018 172.86 124.661 172.861 124.221V120.128H150.287Z" fill="#3F3D56"/>
<path d="M205.278 11.4449H118.622C117.072 11.4482 115.816 13.1117 115.813 15.1647V92.6123C115.815 94.6659 117.072 96.3301 118.622 96.3321H205.278C206.829 96.3301 208.085 94.6659 208.087 92.6123V15.1647C208.084 13.1117 206.828 11.4482 205.278 11.4449Z" fill="#E6E6E6"/>
<path d="M204.555 14.1317H119.346C118.516 14.1341 117.844 15.0259 117.844 16.1252V91.6532C117.845 92.7511 118.517 93.6406 119.346 93.6425H204.555C205.384 93.6406 206.055 92.7511 206.057 91.6532V16.1252C206.057 15.0259 205.385 14.1341 204.555 14.1317Z" fill="white"/>
<path d="M187.957 126.444H137.263C136.748 126.444 136.33 125.891 136.33 125.209C136.33 125.124 136.337 125.039 136.35 124.955L137.137 120.007C137.229 119.437 137.609 119.028 138.049 119.026H187.171C187.611 119.028 187.991 119.437 188.083 120.007L188.87 124.955C188.976 125.622 188.653 126.277 188.149 126.418C188.086 126.436 188.022 126.444 187.957 126.444Z" fill="#CCCCCC"/>
<path d="M139.777 119.917H138.603C138.496 119.917 138.409 120.032 138.409 120.174V120.901C138.409 121.043 138.496 121.158 138.603 121.158H139.777C139.884 121.158 139.971 121.043 139.971 120.901V120.174C139.971 120.032 139.884 119.917 139.777 119.917Z" fill="#E6E6E6"/>
<path d="M142.9 119.917H141.726C141.619 119.917 141.532 120.032 141.532 120.174V120.901C141.532 121.043 141.619 121.158 141.726 121.158H142.9C143.007 121.158 143.094 121.043 143.094 120.901V120.174C143.094 120.032 143.007 119.917 142.9 119.917Z" fill="#E6E6E6"/>
<path d="M146.022 119.917H144.849C144.742 119.917 144.655 120.032 144.655 120.174V120.901C144.655 121.043 144.742 121.158 144.849 121.158H146.022C146.129 121.158 146.216 121.043 146.216 120.901V120.174C146.216 120.032 146.129 119.917 146.022 119.917Z" fill="#E6E6E6"/>
<path d="M149.145 119.917H147.971C147.864 119.917 147.777 120.032 147.777 120.174V120.901C147.777 121.043 147.864 121.158 147.971 121.158H149.145C149.252 121.158 149.339 121.043 149.339 120.901V120.174C149.339 120.032 149.252 119.917 149.145 119.917Z" fill="#E6E6E6"/>
<path d="M152.267 119.917H151.094C150.987 119.917 150.9 120.032 150.9 120.174V120.901C150.9 121.043 150.987 121.158 151.094 121.158H152.267C152.374 121.158 152.461 121.043 152.461 120.901V120.174C152.461 120.032 152.374 119.917 152.267 119.917Z" fill="#E6E6E6"/>
<path d="M155.39 119.917H154.217C154.11 119.917 154.023 120.032 154.023 120.174V120.901C154.023 121.043 154.11 121.158 154.217 121.158H155.39C155.497 121.158 155.584 121.043 155.584 120.901V120.174C155.584 120.032 155.497 119.917 155.39 119.917Z" fill="#E6E6E6"/>
<path d="M158.513 119.917H157.34C157.232 119.917 157.146 120.032 157.146 120.174V120.901C157.146 121.043 157.232 121.158 157.34 121.158H158.513C158.62 121.158 158.707 121.043 158.707 120.901V120.174C158.707 120.032 158.62 119.917 158.513 119.917Z" fill="#E6E6E6"/>
<path d="M161.635 119.917H160.462C160.355 119.917 160.268 120.032 160.268 120.174V120.901C160.268 121.043 160.355 121.158 160.462 121.158H161.635C161.743 121.158 161.829 121.043 161.829 120.901V120.174C161.829 120.032 161.743 119.917 161.635 119.917Z" fill="#E6E6E6"/>
<path d="M164.758 119.917H163.585C163.477 119.917 163.391 120.032 163.391 120.174V120.901C163.391 121.043 163.477 121.158 163.585 121.158H164.758C164.865 121.158 164.952 121.043 164.952 120.901V120.174C164.952 120.032 164.865 119.917 164.758 119.917Z" fill="#E6E6E6"/>
<path d="M167.881 119.917H166.708C166.601 119.917 166.514 120.032 166.514 120.174V120.901C166.514 121.043 166.601 121.158 166.708 121.158H167.881C167.988 121.158 168.075 121.043 168.075 120.901V120.174C168.075 120.032 167.988 119.917 167.881 119.917Z" fill="#E6E6E6"/>
<path d="M171.004 119.917H169.83C169.723 119.917 169.636 120.032 169.636 120.174V120.901C169.636 121.043 169.723 121.158 169.83 121.158H171.004C171.111 121.158 171.198 121.043 171.198 120.901V120.174C171.198 120.032 171.111 119.917 171.004 119.917Z" fill="#E6E6E6"/>
<path d="M174.126 119.917H172.953C172.846 119.917 172.759 120.032 172.759 120.174V120.901C172.759 121.043 172.846 121.158 172.953 121.158H174.126C174.233 121.158 174.32 121.043 174.32 120.901V120.174C174.32 120.032 174.233 119.917 174.126 119.917Z" fill="#E6E6E6"/>
<path d="M177.249 119.917H176.076C175.969 119.917 175.882 120.032 175.882 120.174V120.901C175.882 121.043 175.969 121.158 176.076 121.158H177.249C177.356 121.158 177.443 121.043 177.443 120.901V120.174C177.443 120.032 177.356 119.917 177.249 119.917Z" fill="#E6E6E6"/>
<path d="M180.372 119.917H179.198C179.091 119.917 179.004 120.032 179.004 120.174V120.901C179.004 121.043 179.091 121.158 179.198 121.158H180.372C180.479 121.158 180.566 121.043 180.566 120.901V120.174C180.566 120.032 180.479 119.917 180.372 119.917Z" fill="#E6E6E6"/>
<path d="M183.494 119.917H182.321C182.214 119.917 182.127 120.032 182.127 120.174V120.901C182.127 121.043 182.214 121.158 182.321 121.158H183.494C183.601 121.158 183.688 121.043 183.688 120.901V120.174C183.688 120.032 183.601 119.917 183.494 119.917Z" fill="#E6E6E6"/>
<path d="M186.617 119.917H185.444C185.336 119.917 185.25 120.032 185.25 120.174V120.901C185.25 121.043 185.336 121.158 185.444 121.158H186.617C186.724 121.158 186.811 121.043 186.811 120.901V120.174C186.811 120.032 186.724 119.917 186.617 119.917Z" fill="#E6E6E6"/>
<path d="M139.74 121.985H138.567C138.459 121.985 138.373 122.1 138.373 122.242V122.969C138.373 123.111 138.459 123.226 138.567 123.226H139.74C139.847 123.226 139.934 123.111 139.934 122.969V122.242C139.934 122.1 139.847 121.985 139.74 121.985Z" fill="#E6E6E6"/>
<path d="M142.862 121.985H141.689C141.582 121.985 141.495 122.1 141.495 122.242V122.969C141.495 123.111 141.582 123.226 141.689 123.226H142.862C142.97 123.226 143.056 123.111 143.056 122.969V122.242C143.056 122.1 142.97 121.985 142.862 121.985Z" fill="#E6E6E6"/>
<path d="M145.985 121.985H144.812C144.705 121.985 144.618 122.1 144.618 122.242V122.969C144.618 123.111 144.705 123.226 144.812 123.226H145.985C146.092 123.226 146.179 123.111 146.179 122.969V122.242C146.179 122.1 146.092 121.985 145.985 121.985Z" fill="#E6E6E6"/>
<path d="M149.108 121.985H147.934C147.827 121.985 147.74 122.1 147.74 122.242V122.969C147.74 123.111 147.827 123.226 147.934 123.226H149.108C149.215 123.226 149.302 123.111 149.302 122.969V122.242C149.302 122.1 149.215 121.985 149.108 121.985Z" fill="#E6E6E6"/>
<path d="M152.231 121.985H151.057C150.95 121.985 150.863 122.1 150.863 122.242V122.969C150.863 123.111 150.95 123.226 151.057 123.226H152.231C152.338 123.226 152.425 123.111 152.425 122.969V122.242C152.425 122.1 152.338 121.985 152.231 121.985Z" fill="#E6E6E6"/>
<path d="M155.353 121.985H154.18C154.073 121.985 153.986 122.1 153.986 122.242V122.969C153.986 123.111 154.073 123.226 154.18 123.226H155.353C155.46 123.226 155.547 123.111 155.547 122.969V122.242C155.547 122.1 155.46 121.985 155.353 121.985Z" fill="#E6E6E6"/>
<path d="M158.476 121.985H157.302C157.195 121.985 157.108 122.1 157.108 122.242V122.969C157.108 123.111 157.195 123.226 157.302 123.226H158.476C158.583 123.226 158.67 123.111 158.67 122.969V122.242C158.67 122.1 158.583 121.985 158.476 121.985Z" fill="#E6E6E6"/>
<path d="M161.599 121.985H160.425C160.318 121.985 160.231 122.1 160.231 122.242V122.969C160.231 123.111 160.318 123.226 160.425 123.226H161.599C161.706 123.226 161.793 123.111 161.793 122.969V122.242C161.793 122.1 161.706 121.985 161.599 121.985Z" fill="#E6E6E6"/>
<path d="M164.721 121.985H163.548C163.441 121.985 163.354 122.1 163.354 122.242V122.969C163.354 123.111 163.441 123.226 163.548 123.226H164.721C164.828 123.226 164.915 123.111 164.915 122.969V122.242C164.915 122.1 164.828 121.985 164.721 121.985Z" fill="#E6E6E6"/>
<path d="M167.844 121.985H166.671C166.563 121.985 166.477 122.1 166.477 122.242V122.969C166.477 123.111 166.563 123.226 166.671 123.226H167.844C167.951 123.226 168.038 123.111 168.038 122.969V122.242C168.038 122.1 167.951 121.985 167.844 121.985Z" fill="#E6E6E6"/>
<path d="M170.966 121.985H169.793C169.686 121.985 169.599 122.1 169.599 122.242V122.969C169.599 123.111 169.686 123.226 169.793 123.226H170.966C171.074 123.226 171.16 123.111 171.16 122.969V122.242C171.16 122.1 171.074 121.985 170.966 121.985Z" fill="#E6E6E6"/>
<path d="M174.089 121.985H172.916C172.809 121.985 172.722 122.1 172.722 122.242V122.969C172.722 123.111 172.809 123.226 172.916 123.226H174.089C174.197 123.226 174.284 123.111 174.284 122.969V122.242C174.284 122.1 174.197 121.985 174.089 121.985Z" fill="#E6E6E6"/>
<path d="M177.212 121.985H176.039C175.932 121.985 175.845 122.1 175.845 122.242V122.969C175.845 123.111 175.932 123.226 176.039 123.226H177.212C177.319 123.226 177.406 123.111 177.406 122.969V122.242C177.406 122.1 177.319 121.985 177.212 121.985Z" fill="#E6E6E6"/>
<path d="M180.335 121.985H179.161C179.054 121.985 178.967 122.1 178.967 122.242V122.969C178.967 123.111 179.054 123.226 179.161 123.226H180.335C180.442 123.226 180.529 123.111 180.529 122.969V122.242C180.529 122.1 180.442 121.985 180.335 121.985Z" fill="#E6E6E6"/>
<path d="M183.457 121.985H182.284C182.177 121.985 182.09 122.1 182.09 122.242V122.969C182.09 123.111 182.177 123.226 182.284 123.226H183.457C183.564 123.226 183.651 123.111 183.651 122.969V122.242C183.651 122.1 183.564 121.985 183.457 121.985Z" fill="#E6E6E6"/>
<path d="M186.58 121.985H185.407C185.3 121.985 185.213 122.1 185.213 122.242V122.969C185.213 123.111 185.3 123.226 185.407 123.226H186.58C186.687 123.226 186.774 123.111 186.774 122.969V122.242C186.774 122.1 186.687 121.985 186.58 121.985Z" fill="#E6E6E6"/>
<path d="M165.658 124.467H153.555C153.448 124.467 153.361 124.582 153.361 124.724V125.45C153.361 125.592 153.448 125.707 153.555 125.707H165.658C165.765 125.707 165.852 125.592 165.852 125.45V124.724C165.852 124.582 165.765 124.467 165.658 124.467Z" fill="#E6E6E6"/>
<path d="M200.271 24.5377H120.542C120.366 24.5326 120.228 24.3405 120.232 24.1086C120.235 23.8838 120.372 23.7028 120.542 23.6979H200.271C200.446 23.703 200.585 23.8951 200.581 24.127C200.578 24.3518 200.441 24.5328 200.271 24.5377Z" fill="#CACACA"/>
<path d="M125.969 21.5539C126.995 21.5539 127.827 20.4275 127.827 19.038C127.827 17.6486 126.995 16.5222 125.969 16.5222C124.943 16.5222 124.111 17.6486 124.111 19.038C124.111 20.4275 124.943 21.5539 125.969 21.5539Z" fill="#CCCCCC"/>
<path d="M132.388 21.5539C133.414 21.5539 134.246 20.4275 134.246 19.038C134.246 17.6486 133.414 16.5222 132.388 16.5222C131.362 16.5222 130.53 17.6486 130.53 19.038C130.53 20.4275 131.362 21.5539 132.388 21.5539Z" fill="#CCCCCC"/>
<path d="M138.807 21.5539C139.834 21.5539 140.665 20.4275 140.665 19.038C140.665 17.6486 139.834 16.5222 138.807 16.5222C137.781 16.5222 136.949 17.6486 136.949 19.038C136.949 20.4275 137.781 21.5539 138.807 21.5539Z" fill="#CCCCCC"/>
<path d="M160.325 30.9049L160.067 29.9084L193 7.24585L193.257 8.24232L160.325 30.9049Z" fill="#3F3D56"/>
<path d="M259.688 72.8812L259.431 71.8847L279.247 49.3369L279.504 50.3329L259.688 72.8812Z" fill="#3F3D56"/>
<path d="M221.616 78.1299L188.684 55.4673L188.942 54.4708L221.873 77.1334L221.616 78.1299Z" fill="#3F3D56"/>
<path d="M238.474 62.36L219.168 20.3817L219.778 19.7063L239.084 61.6846L238.474 62.36Z" fill="#3F3D56"/>
<path d="M253.541 7.66121L234.738 7.54645V6.49365L253.541 6.60841V7.66121Z" fill="#3F3D56"/>
<path d="M287.601 14.1914H266.536C263.682 14.1914 261.369 11.1276 261.369 7.34821C261.369 3.56881 263.682 0.505005 266.536 0.505005H287.601C290.455 0.505005 292.768 3.56881 292.768 7.34821C292.768 11.1276 290.455 14.1914 287.601 14.1914Z" fill="#FF8524"/>
<path d="M313.833 54.1979H292.768C289.914 54.1979 287.601 51.1341 287.601 47.3547C287.601 43.5753 289.914 40.5115 292.768 40.5115H313.833C316.687 40.5115 319 43.5753 319 47.3547C319 51.1341 316.687 54.1979 313.833 54.1979Z" fill="#FF8524"/>
<path d="M279.773 82.4096L260.97 82.2954V81.2426L279.773 81.3568V82.4096Z" fill="#3F3D56"/>
<path d="M313.833 88.9403H292.768C289.914 88.9403 287.601 85.8765 287.601 82.0971C287.601 78.3177 289.914 75.2539 292.768 75.2539H313.833C316.687 75.2539 319 78.3177 319 82.0971C319 85.8765 316.687 88.9403 313.833 88.9403Z" fill="#FF8524"/>
<path d="M252.228 84.224H231.163C228.309 84.224 225.996 81.1602 225.996 77.3808C225.996 73.6014 228.309 70.5376 231.163 70.5376H252.228C255.082 70.5376 257.395 73.6014 257.395 77.3808C257.395 81.1602 255.082 84.224 252.228 84.224Z" fill="#FF8524"/>
<path d="M223.611 13.6864H202.546C199.693 13.6864 197.379 10.6226 197.379 6.8432C197.379 3.06381 199.693 0 202.546 0H223.611C226.465 0 228.778 3.06381 228.778 6.8432C228.778 10.6226 226.465 13.6864 223.611 13.6864Z" fill="#FF8524"/>
<path d="M122.925 131.168H99.0781C97.322 131.168 95.8984 133.054 95.8984 135.38C95.8984 137.705 97.322 139.591 99.0781 139.591H107.822V172.228H114.181V139.591H122.925C124.681 139.591 126.105 137.705 126.105 135.38C126.105 133.054 124.681 131.168 122.925 131.168Z" fill="#3F3D56"/>
<path d="M138.665 190.303H74.8807C62.0991 190.241 51.2853 177.774 49.4769 161.016L47.2191 150.016C42.5459 127.223 35.4277 105.436 26.082 85.3203C21.8105 76.1326 19.6119 67.239 24.6056 58.6764C24.6481 58.6035 24.6899 58.5316 24.731 58.4607C28.7362 51.5563 48.6713 50.0617 55.1701 49.771C55.4268 49.7594 55.6846 49.7537 55.9432 49.7538H95.6165C95.8754 49.7538 96.1331 49.7595 96.3895 49.771C103.527 50.0466 109.974 55.4892 113.176 63.9422C116.593 72.5724 116.157 82.9902 112.041 91.0675C98.1052 118.793 93.8384 136.179 98.2067 147.437C102.432 158.327 115.385 163.895 138.969 164.958C145.307 165.244 148.216 171.78 148.236 177.732C148.256 183.53 145.459 189.932 139.272 190.286C139.071 190.297 138.869 190.303 138.665 190.303Z" fill="#3F3D56"/>
<path d="M85.7162 265.315H109.563C111.319 265.315 112.743 263.429 112.743 261.103C112.743 258.778 111.319 256.892 109.563 256.892H100.819V185.828H94.4602V256.892H85.7162C83.9602 256.892 82.5366 258.778 82.5366 261.103C82.5366 263.429 83.9602 265.315 85.7162 265.315Z" fill="#3F3D56"/>
<path d="M107.3 236.665L111.408 239.621L122.283 219.706L116.219 215.344L107.3 236.665Z" fill="#A0616A"/>
<path d="M109.277 229.569L116.735 232.662L115.548 236.8L120.662 246.63C121.316 247.888 121.077 249.61 120.128 250.476C119.563 250.992 118.843 251.107 118.202 250.784L109.52 246.416L109.197 241.569L107.439 245.369L104.166 243.721L109.277 229.569Z" fill="#2F2E41"/>
<path d="M117.68 35.835C118.048 39.1762 116.301 42.2798 113.778 42.7672C113.509 42.8192 113.237 42.8396 112.965 42.8282L97.1264 87.4644L92.1587 78.2894L108.464 36.082C108.714 32.7034 110.985 30.2335 113.536 30.5653C115.671 30.8429 117.384 33.0215 117.68 35.835Z" fill="#A0616A"/>
<path d="M65.1168 96.4895C65.1168 96.4895 64.6923 104.287 71.3509 105.817C78.0094 107.346 95.8097 92.4383 98.7331 90.1492C101.656 87.8602 107.104 59.0597 107.104 59.0597L102.366 48.4465C96.5169 58.2465 91.9234 67.2832 91.6445 73.698L65.1168 96.4895Z" fill="#FF8524"/>
<path d="M72.8037 123.35L74.2418 131.533C74.2418 131.533 74.2559 139.079 75.2649 140.471C76.2669 141.855 98.2994 139.075 98.2994 139.075C98.2994 139.075 95.9634 126.915 95.9945 117.714L72.8037 123.35Z" fill="#A0616A"/>
<path d="M119.348 228.026L111.399 222.236C111.248 208.536 117.469 189.997 124.849 170.579C108.345 174.338 92.7758 175.542 79.3088 170.995C74.7086 169.386 71.9361 163.183 73.0836 157.067C73.1361 156.779 73.1967 156.493 73.2655 156.211C74.8772 149.698 71.2633 145.616 74.5872 138.452C83.3298 134.498 91.6348 133.381 99.2293 136.873L103.988 150.808L127.574 146.765C132.343 146.01 136.671 150.519 137.242 156.835C137.244 156.864 137.247 156.893 137.249 156.921C137.281 157.261 137.301 157.601 137.311 157.943C132.542 187.554 127.195 214.199 119.348 228.026Z" fill="#2F2E41"/>
<path d="M69.6018 71.54L78.6879 70.8295C79.4734 70.768 80.2018 71.3733 80.5019 72.3367L83.0696 80.581L93.7413 92.2629C93.7413 92.2629 97.9665 99.384 97.9763 108.581C97.9861 117.778 99.4754 139.065 99.4754 139.065C99.4754 139.065 93.3089 127.569 89.5028 130.626C88.8553 131.146 88.6275 132.21 87.9492 132.748C87.6109 133.016 86.8293 132.755 86.4876 133.024C81.2429 137.147 75.7732 141.176 75.2621 140.47C74.2586 139.083 73.0414 131.996 73.0414 131.996L64.7242 91.5224C63.8112 87.2105 64.4015 82.5839 66.3336 78.9089C66.9147 77.8254 67.5235 77.0193 68.0892 76.886C69.3596 76.5277 68.6838 72.757 69.6018 71.54Z" fill="#FF8524"/>
<path d="M146.894 253.809L150.73 250.277L142.041 228.567L136.38 233.779L146.894 253.809Z" fill="#A0616A"/>
<path d="M147.474 239.242L141.463 246.358C131.905 232.253 124.68 212.47 118.556 190.005C102.513 183.782 90.4139 173.746 79.8516 161.829C76.2685 157.813 73.5824 152.654 76.6383 147.763C76.7812 147.534 76.9304 147.313 77.0859 147.099C80.6941 142.188 89.8444 143.124 95.2036 138.625L107.175 155.573L106.422 160.116L128.909 170.205C133.436 172.306 135.819 178.87 134.233 184.865C134.225 184.894 134.217 184.924 134.209 184.953C134.125 185.276 134.031 185.594 133.926 185.906L147.474 239.242Z" fill="#2F2E41"/>
<path d="M144.658 252.377L150.798 245.974L152.706 249.609L161.719 249.572C162.872 249.567 163.81 250.801 163.813 252.329C163.815 253.237 163.48 254.089 162.917 254.608L155.291 261.629L152.09 259.244L153.464 263.311L150.588 265.959L144.658 252.377Z" fill="#2F2E41"/>
<path d="M83.019 173.54C80.6722 172.221 79.5772 168.631 80.5733 165.523C80.6795 165.192 80.8076 164.874 80.9561 164.572L60.3862 123.459L68.8863 122.604L87.647 162.982C89.6967 165.021 90.1104 168.874 88.5712 171.588C87.2833 173.86 84.9879 174.667 83.019 173.54Z" fill="#A0616A"/>
<path d="M71.1923 82.5452C71.1923 82.5452 66.3819 78.014 61.9362 84.7551C57.4905 91.4961 57.8617 119.385 57.8199 123.883C57.8068 125.291 59.3423 128.33 61.4578 131.84C62.4076 133.416 63.4742 135.087 64.5701 136.748C65.2043 137.709 64.6579 139.71 65.2947 140.644C65.928 141.573 67.7447 141.436 68.3471 142.298C71.2064 146.391 73.5293 149.507 73.5293 149.507L82.8377 149.658C82.9428 140.493 78.204 132.313 72.1161 124.407L71.1923 82.5452Z" fill="#FF8524"/>
<path d="M61.8093 42.6425C60.928 43.4849 60.0009 44.3528 58.9256 44.5616C57.8502 44.7703 56.5912 44.0818 56.2936 42.6974C55.9298 41.0046 57.0839 39.4633 58.1212 38.3632L61.4105 34.8747C62.0128 34.1672 62.6928 33.5849 63.4272 33.1478C64.1744 32.7124 65.0305 32.7503 65.754 33.2508C66.4728 33.8937 66.8885 34.9843 66.8522 36.1321C66.8053 37.2634 66.5234 38.3556 66.0376 39.2883C64.8037 41.8354 62.8382 43.6049 60.596 44.1873" fill="#2F2E41"/>
<path d="M86.7573 133.274H62.9101C61.154 133.274 59.7305 135.16 59.7305 137.485C59.7305 139.811 61.154 141.697 62.9101 141.697H71.654V174.333H78.0133V141.697H86.7573C88.5133 141.697 89.9369 139.811 89.9369 137.485C89.9369 135.16 88.5133 133.274 86.7573 133.274Z" fill="#3F3D56"/>
<path d="M63.2708 33.8073C63.3667 30.6499 60.8263 28.1498 58.4458 28.3474C56.0653 28.545 54.0189 30.7628 52.6689 33.3681C51.3193 35.9712 50.5086 38.9863 49.4453 41.8127C48.3821 44.6391 46.9662 47.4064 44.8535 48.8711C42.7411 50.3336 39.8007 50.0726 38.3407 47.5756C37.4199 49.4249 37.2197 51.7447 37.8015 53.8215C38.3992 55.8715 39.5139 57.5846 40.9566 58.6701C41.5308 59.1212 42.1442 59.4784 42.7833 59.734C43.0468 58.7919 43.4175 57.9088 43.8827 57.1152C43.6726 58.0547 43.5924 59.0367 43.646 60.014C44.631 60.264 45.6444 60.2429 46.623 59.9518C48.5715 59.3746 50.2007 57.6149 51.0195 55.203C51.9124 52.4038 51.4576 49.2122 51.6486 46.1841C51.8379 43.1555 53.2158 39.6982 55.5102 39.6488C57.2576 39.6107 57.0263 39.8015 58.1334 41.5921" fill="#2F2E41"/>
<path d="M79.1373 50.3986C79.1373 57.9574 74.5107 64.085 68.8035 64.085C63.0963 64.085 57.6748 55.3254 57.6748 47.7666C57.6748 40.2078 63.0963 36.7122 68.8035 36.7122C74.5107 36.7122 79.1373 42.8398 79.1373 50.3986Z" fill="#2F2E41"/>
<path d="M73.8956 66.8001C79.23 65.3545 82.6695 58.4553 81.578 51.3902C80.4865 44.3252 75.2773 39.7698 69.9429 41.2154C64.6085 42.6611 61.169 49.5603 62.2605 56.6254C63.3521 63.6904 68.5613 68.2458 73.8956 66.8001Z" fill="#A0616A"/>
<path d="M84.3041 51.9777C81.3856 53.0331 78.4389 54.1395 77.301 51.9777C77.0799 50.5443 76.6608 49.1773 76.0649 47.9455C75.9529 49.325 75.7084 50.68 75.3376 51.9777C71.6504 53.0392 68.2043 53.2929 65.2264 51.9777C64.817 52.9586 64.5793 54.0488 64.5309 55.1677C64.3836 55.0452 64.2295 54.9378 64.0698 54.8466C63.8783 54.7032 63.6494 54.6763 63.4419 54.7729C63.2983 54.8877 63.2029 55.084 63.1835 55.3046C63.1637 55.5241 63.1718 55.7465 63.2074 55.9626C63.2491 56.7155 63.4189 57.4461 63.7042 58.0998C63.9323 58.555 64.2943 58.8624 64.7018 58.9473C65.1151 62.0267 68.406 66.1905 68.406 66.1905C58.4697 66.7169 58.4697 57.7892 58.4697 49.3457L59.6621 46.1873H63.6366V39.3441H74.7653C80.0329 39.3459 84.3028 45.0011 84.3041 51.9777Z" fill="#2F2E41"/>
<path d="M174.858 266.838L0.47571 267C0.214349 267.002 0.00136984 266.723 6.57609e-06 266.377C-0.00135669 266.03 0.209412 265.748 0.470773 265.746H0.47571L174.858 265.585C175.119 265.586 175.331 265.867 175.33 266.214C175.329 266.558 175.118 266.837 174.858 266.838Z" fill="#CACACA"/>
<path d="M291.311 266.838L201.189 267C200.928 267.002 200.715 266.723 200.713 266.377C200.712 266.03 200.923 265.748 201.184 265.746H201.189L291.311 265.585C291.573 265.584 291.785 265.863 291.786 266.209C291.787 266.556 291.576 266.837 291.315 266.838H291.311Z" fill="#CACACA"/>
<path d="M178.843 77.9072H144.681C141.714 77.9028 139.309 74.7182 139.306 70.7884V40.8083C139.309 36.8786 141.714 33.6939 144.681 33.6896H178.843C181.81 33.6939 184.215 36.8786 184.218 40.8083V70.7884C184.215 74.7182 181.81 77.9028 178.843 77.9072ZM144.681 34.7424C142.153 34.7462 140.104 37.4598 140.101 40.8083V70.7884C140.104 74.137 142.153 76.8506 144.681 76.8544H178.843C181.372 76.8506 183.421 74.137 183.423 70.7884V40.8083C183.421 37.4598 181.372 34.7462 178.843 34.7424L144.681 34.7424Z" fill="#E6E6E6"/>
<path d="M154.803 43.1648H145.666V44.2176H154.803V43.1648Z" fill="#E6E6E6"/>
<path d="M165.936 47.376H145.666V48.4288H165.936V47.376Z" fill="#E6E6E6"/>
<path d="M165.936 51.0608H145.666V52.1136H165.936V51.0608Z" fill="#E6E6E6"/>
<path d="M171.5 54.7456H145.666V55.7984H171.5V54.7456Z" fill="#E6E6E6"/>
<path d="M159.179 58.4304H145.666V59.4832H159.179V58.4304Z" fill="#E6E6E6"/>
<path d="M170.308 62.1152H145.666V63.168H170.308V62.1152Z" fill="#E6E6E6"/>
<path d="M150.038 65.8H145.666V66.8528H150.038V65.8Z" fill="#E6E6E6"/>
<path d="M145.368 20.5077C145.329 20.5077 145.291 20.4879 145.262 20.4485L144.413 19.3003C144.357 19.2238 144.357 19.1015 144.413 19.025L145.262 17.877C145.319 17.7993 145.413 17.7981 145.472 17.8739C145.53 17.9499 145.531 18.0746 145.474 18.1523L144.728 19.1627L145.474 20.1732C145.531 20.2509 145.53 20.3755 145.472 20.4516C145.443 20.489 145.405 20.5077 145.368 20.5077Z" fill="#CCCCCC"/>
<path d="M146.793 20.5077C146.756 20.5077 146.718 20.4891 146.689 20.4516C146.631 20.3756 146.63 20.251 146.687 20.1732L147.433 19.1627L146.687 18.1523C146.63 18.0746 146.631 17.95 146.689 17.8739C146.748 17.7978 146.842 17.7992 146.899 17.877L147.747 19.0251C147.804 19.1016 147.804 19.2238 147.747 19.3003L146.899 20.4485C146.87 20.4879 146.832 20.5077 146.793 20.5077Z" fill="#CCCCCC"/>
<path d="M191.158 17.6581H189.581C189.401 17.6581 189.255 17.851 189.255 18.0892V20.1796C189.255 20.4178 189.401 20.6107 189.581 20.6107H191.158C191.338 20.6107 191.485 20.4178 191.485 20.1796V18.0892C191.485 17.851 191.338 17.6581 191.158 17.6581Z" fill="#CCCCCC"/>
<path d="M187.294 17.6581H185.717C185.537 17.6581 185.392 17.851 185.392 18.0892V20.1796C185.392 20.4178 185.537 20.6107 185.717 20.6107H187.294C187.474 20.6107 187.621 20.4178 187.621 20.1796V18.0892C187.621 17.851 187.474 17.6581 187.294 17.6581Z" fill="#CCCCCC"/>
<path d="M194.799 17.7565H193.222C193.043 17.7565 192.897 17.9494 192.897 18.1875V20.278C192.897 20.5162 193.043 20.7091 193.222 20.7091H194.799C194.979 20.7091 195.126 20.5162 195.126 20.278V18.1875C195.126 17.9494 194.979 17.7565 194.799 17.7565Z" fill="#CCCCCC"/>
<path d="M171.031 18.5516H158.427C158.207 18.5516 158.03 18.7878 158.03 19.0772C158.03 19.3666 158.207 19.6028 158.427 19.6028H171.031C171.25 19.6028 171.428 19.3666 171.428 19.0772C171.428 18.7879 171.25 18.5516 171.031 18.5516Z" fill="#CCCCCC"/>
</svg>
